<svg width="248" height="38" viewBox="0 0 248 38" fill="none" xmlns="http://www.w3.org/2000/svg">
<g clip-path="url(#clip0_95_5437)">
<path d="M93.2908 22.4067C93.2908 19.267 93.2877 15.9298 93.297 12.5926C93.297 12.0863 93.183 11.7066 92.804 11.3021C91.8027 10.2309 91.5871 8.90649 91.9075 7.49565C92.3943 5.35007 93.6913 3.77561 95.466 2.55926C97.5209 1.15151 99.8224 0.410589 102.281 0.145092C104.931 -0.138927 107.543 -0.0493995 110.11 0.805747C114.725 2.34316 117.935 6.51084 118.286 11.262C118.582 15.2599 117.538 18.7607 114.851 21.7522C114.401 22.2523 113.89 22.6784 113.351 23.0704C112.556 23.6477 112.491 23.7558 112.867 24.7159C113.437 26.1792 114.167 27.5592 115.138 28.8064C115.785 29.6368 116.484 30.421 117.224 31.1712C117.71 31.6651 118.163 32.1869 118.558 32.7611C119.771 34.5331 119.217 36.5089 117.279 37.4412C115.584 38.2562 113.896 38.0803 112.186 37.54C110.335 36.9534 108.976 35.7124 107.95 34.1349C106.351 31.6744 105.353 28.9638 104.928 26.0557C104.841 25.4723 104.61 25.2284 104.016 25.1543C102.552 24.9721 102.549 24.9413 102.568 26.3953C102.592 28.5533 102.635 30.7081 102.641 32.866C102.641 33.8261 102.466 34.7677 101.939 35.5889C100.987 37.0708 99.0676 37.7252 97.179 37.2498C95.0254 36.7096 93.7068 35.1474 93.5496 32.9247C93.3093 29.4887 93.451 26.0465 93.3001 22.4098L93.2908 22.4067ZM102.537 13.8027C102.537 13.8027 102.524 13.8027 102.518 13.8027C102.518 15.2136 102.527 16.6213 102.512 18.0322C102.506 18.486 102.675 18.7144 103.128 18.8472C104.94 19.3782 106.6 18.6403 107.343 16.8621C108.286 14.6054 108.049 12.3888 106.872 10.2895C106.052 8.82931 104.715 8.33227 103.224 8.73361C102.712 8.87253 102.518 9.12259 102.527 9.6505C102.552 11.0335 102.537 12.4197 102.537 13.8027Z" fill="#262626"/>
<path d="M64.0526 21.0545C64.0588 16.8035 64.7089 12.6636 66.5297 8.79227C68.0763 5.50443 70.2977 2.79081 73.7329 1.31822C76.287 0.222278 78.9336 0.101878 81.6417 0.734748C83.6659 1.20709 85.4898 2.01284 86.867 3.61508C87.9299 4.85304 88.5707 6.28857 88.543 7.96491C88.5214 9.15038 88.0685 10.1691 87.2613 11.0089C86.9502 11.333 86.8115 11.6448 86.8177 12.0894C86.904 18.2483 86.9748 24.4072 87.058 30.563C87.0734 31.7763 86.9378 32.9741 86.6852 34.1534C86.3001 35.9501 85.3758 36.7281 83.5519 36.8855C81.2319 37.0862 79.4881 35.8946 78.7764 33.6255C78.0894 31.4243 77.9169 29.1522 77.8583 26.8615C77.8429 26.2718 77.8337 25.6822 77.8306 25.0925C77.8306 24.6449 77.618 24.4504 77.1651 24.4504C76.1392 24.4504 75.1132 24.4504 74.0873 24.4072C73.5327 24.3856 73.3786 24.6356 73.3879 25.145C73.4187 26.6423 73.6713 28.1025 74.0164 29.5535C74.1828 30.2512 74.3584 30.9458 74.5679 31.6312C74.7897 32.3536 74.8544 33.0883 74.8421 33.8354C74.8174 35.4099 73.9116 36.4255 72.3496 36.654C70.3501 36.9442 68.7203 36.3175 67.4663 34.7183C66.0183 32.8722 65.3004 30.7143 64.8136 28.4699C64.2868 26.031 64.0773 23.552 64.0496 21.0576L64.0526 21.0545ZM77.8737 13.8583C77.8737 13.8583 77.8984 13.8583 77.9107 13.8583C77.9107 12.6296 77.9107 11.4009 77.9107 10.1691C77.9107 9.26152 77.464 8.82005 76.5489 8.83858C76.0406 8.84784 75.6123 9.06085 75.2149 9.36031C74.497 9.90365 74.0318 10.6322 73.7052 11.4534C72.9103 13.4632 72.6577 15.5532 72.7994 17.7049C72.8302 18.1958 73.0367 18.381 73.5142 18.3749C74.7158 18.3625 75.9204 18.3594 77.122 18.3903C77.692 18.4057 77.8922 18.1834 77.8799 17.6216C77.8522 16.3682 77.8706 15.1117 77.8706 13.8552L77.8737 13.8583Z" fill="#262626"/>
<path d="M124.193 20.9496C124.193 16.9209 124.186 12.889 124.202 8.86026C124.202 8.26135 124.06 7.81062 123.616 7.35989C122.279 6.0108 122.35 3.4608 123.727 1.85238C124.658 0.765696 125.865 0.126651 127.28 0.0988665C132 0.00625138 136.72 0.0463846 141.44 0.101954C141.874 0.108128 142.302 0.157523 142.718 0.32423C143.778 0.747173 144.363 1.50044 144.45 2.64578C144.527 3.64911 144.508 4.64627 144.194 5.61256C143.707 7.10057 142.601 7.93411 141.036 7.95263C139.345 7.97424 137.65 7.95263 135.956 7.95881C134.772 7.96498 134.39 8.33235 134.378 9.53018C134.36 11.685 134.369 13.843 134.375 15.9978C134.375 16.2139 134.283 16.5072 134.538 16.6214C134.803 16.7418 134.948 16.4763 135.093 16.3096C135.743 15.5594 136.566 15.2353 137.545 15.2445C138.725 15.26 139.905 15.2229 141.085 15.2661C143.156 15.3433 144.142 16.3868 144.197 18.4706C144.222 19.3813 144.123 20.2704 143.76 21.104C143.106 22.6136 141.849 23.1724 140.297 23.1909C138.682 23.2094 137.065 23.1971 135.447 23.2002C134.44 23.2002 134.378 23.2557 134.372 24.2251C134.363 25.7903 134.357 27.3555 134.372 28.9238C134.378 29.711 134.486 29.8036 135.275 29.8036C137.404 29.8036 139.532 29.7944 141.661 29.7851C142.253 29.7851 142.838 29.8098 143.427 29.8716C145.091 30.0506 145.608 31.0632 145.771 32.2888C145.925 33.4465 145.722 34.5949 145.22 35.6662C144.739 36.6911 143.932 37.3147 142.798 37.4629C142.342 37.5216 141.877 37.5339 141.418 37.537C138.75 37.5524 136.082 37.5617 133.414 37.5679C132.363 37.5679 131.316 37.5679 130.271 37.7408C129.14 37.926 128.01 37.7747 126.925 37.4351C125.422 36.9659 124.51 35.9564 124.331 34.3356C124.254 33.6441 124.214 32.9556 124.214 32.2641C124.217 28.4916 124.214 24.716 124.214 20.9435H124.193V20.9496Z" fill="#262626"/>
<path d="M186.643 16.788C187.574 15.1549 189.046 15.266 190.497 15.3123C191.061 15.3308 191.628 15.3031 192.189 15.3525C193.501 15.4698 194.278 16.2446 194.484 17.5382C194.66 18.6279 194.552 19.6776 194.201 20.718C193.735 22.0856 192.765 22.7277 191.357 22.7586C190.023 22.7894 188.689 22.7987 187.355 22.8265C186.446 22.8481 186.421 22.8759 186.4 23.8051C186.366 25.2931 186.332 26.7812 186.313 28.2723C186.307 28.9484 186.384 29.0255 187.068 29.0132C188.479 28.9885 189.89 28.9422 191.298 28.9051C191.862 28.8897 192.426 28.865 192.99 28.8712C194.9 28.8928 195.655 29.6399 195.639 31.5447C195.633 32.3381 195.566 33.1346 195.307 33.9002C194.801 35.4005 193.945 36.089 192.371 36.16C189.758 36.2804 187.142 36.407 184.527 36.4594C183.516 36.4811 182.564 36.8268 181.553 36.8114C180.879 36.8021 180.219 36.7249 179.579 36.5459C178.232 36.1754 177.329 34.9683 177.342 33.4834C177.373 30.4024 177.447 27.3245 177.508 24.2435C177.607 19.2639 177.607 14.2843 177.527 9.30159C177.517 8.70886 177.373 8.24269 176.978 7.77036C175.798 6.36261 175.74 4.78506 176.504 3.16121C177.234 1.61145 178.516 0.814959 180.189 0.842744C184.086 0.907574 187.986 1.02489 191.881 1.18542C193.766 1.2626 194.632 2.23506 194.734 4.12441C194.783 5.06291 194.657 5.96745 194.318 6.84421C193.902 7.91854 193.058 8.53906 191.905 8.54215C190.547 8.54524 189.185 8.49584 187.826 8.48349C186.696 8.47115 186.406 8.76134 186.409 9.88198C186.415 11.8856 186.427 13.886 186.44 15.8896C186.44 16.115 186.406 16.3465 186.634 16.7818L186.643 16.788Z" fill="#262626"/>
<path d="M51.9415 1.67634C53.4881 1.73191 55.0008 1.70412 56.4489 2.27525C58.3067 3.00691 59.1262 4.24795 59.0584 6.25462C59.003 7.87229 58.5162 9.38192 57.9832 10.8792C56.415 15.2877 55.3089 19.8104 54.5479 24.4226C54.4185 25.2068 54.3138 26.0002 54.3353 26.7967C54.3662 27.9605 54.9639 28.3495 56.0638 27.9821C56.72 27.7629 57.1975 27.2937 57.7059 26.8677C58.0787 26.5528 58.4361 26.2348 58.9198 26.0773C59.6037 25.852 59.9488 25.9415 60.3832 26.5219C60.679 26.9201 60.8484 27.3801 60.9563 27.8556C61.3075 29.3714 61.4215 30.8964 61.0271 32.4246C60.5712 34.1935 59.4035 35.1691 57.6196 35.4037C55.1056 35.734 52.6039 35.5581 50.1114 35.1629C49.4798 35.061 48.8482 34.9622 48.2289 34.7863C46.2879 34.2429 45.2404 32.9 44.8183 31.0045C44.4178 29.2139 44.6366 27.4295 44.9785 25.6606C45.5578 22.6753 46.6053 19.8413 47.8192 17.0597C48.8143 14.7814 49.8403 12.5123 50.6814 10.1692C50.8292 9.75547 50.9463 9.33253 50.9802 8.90032C51.0264 8.30141 50.6783 7.99269 50.0775 8.04826C49.6277 8.0884 49.2364 8.28906 48.9129 8.59161C48.5401 8.94354 48.1858 9.314 47.8377 9.69064C47.5234 10.0333 47.1937 10.3544 46.7747 10.5643C46.1339 10.8854 45.6255 10.7218 45.2959 10.0889C45.1911 9.88513 45.1018 9.66285 45.0617 9.44058C44.7506 7.69633 44.7844 5.96442 45.4006 4.28191C45.8597 3.03161 46.7439 2.28143 48.0718 1.99432C49.3658 1.71647 50.669 1.72882 51.9353 1.67017L51.9415 1.67634Z" fill="#262626"/>
<path d="M171.201 16.4052C171.201 20.153 171.238 23.9009 171.186 27.6487C171.158 29.5072 170.81 31.3378 169.889 32.9833C168.456 35.5333 166.118 36.8176 163.348 37.4072C162.298 37.6326 161.241 37.8271 160.153 37.5307C159.044 37.2282 158.502 36.5737 158.545 35.4222C158.585 34.3664 159.044 33.5081 159.784 32.7703C160.594 31.9615 161.232 31.0477 161.515 29.9085C161.666 29.3003 161.666 28.686 161.675 28.0747C161.805 20.7056 161.798 13.3396 161.697 5.97056C161.684 5.07219 161.709 4.18617 161.891 3.29398C162.165 1.93562 162.911 0.969338 164.199 0.549483C165.65 0.0771452 167.15 0.101843 168.573 0.688405C170.407 1.44168 171.149 2.976 171.195 4.85609C171.269 7.9093 171.275 10.9656 171.309 14.0219C171.319 14.8184 171.309 15.6149 171.309 16.4083C171.272 16.4083 171.238 16.4083 171.201 16.4083V16.4052Z" fill="#262626"/>
<path d="M0.757907 19.758C0.757907 17.5507 0.757907 15.3433 0.757907 13.136C0.757907 12.7779 0.742503 12.4352 0.579213 12.0895C-0.523762 9.7926 -0.0308122 7.29816 1.88861 5.57552C3.38903 4.22643 5.16365 3.49477 7.1909 3.41759C9.75116 3.3188 11.6429 4.44871 12.8999 6.63134C14.3756 9.19369 14.7022 11.9968 14.4527 14.8957C14.2709 17.0197 13.6424 18.9646 12.2159 20.5946C11.9787 20.8663 11.991 21.1163 12.145 21.4343C13.2511 23.7281 13.3805 26.1361 12.792 28.5719C12.0773 31.5325 9.59403 33.2675 6.55931 33.0359C3.41059 32.7951 1.62057 31.2546 1.08757 28.2909C0.970492 27.6365 0.915035 26.9665 0.890388 26.3028C0.847255 25.2007 0.847255 24.0955 0.841093 22.9933C0.834931 21.9159 0.841093 20.8385 0.841093 19.7611C0.813364 19.7611 0.785636 19.7611 0.754827 19.7611L0.757907 19.758ZM5.67816 14.2536C5.67816 14.2536 5.66276 14.2536 5.65352 14.2536C5.65352 15.0223 5.65352 15.791 5.65352 16.5597C5.65352 16.6122 5.65968 16.6616 5.65352 16.714C5.62887 17.1833 5.8661 17.3346 6.31284 17.3284C7.15393 17.316 7.93649 16.7573 8.24458 15.8249C8.65743 14.5777 8.69132 13.3089 8.32469 12.0401C8.23226 11.7159 8.08129 11.4195 7.84098 11.1787C7.44662 10.7867 6.80579 10.6786 6.27278 10.8978C5.75827 11.1108 5.65968 11.5245 5.66892 12.0215C5.68433 12.7655 5.672 13.5065 5.672 14.2505L5.67816 14.2536ZM5.70897 24.4814C5.70897 24.4814 5.7367 24.4814 5.75211 24.4814C5.75211 24.9167 5.73054 25.3519 5.75827 25.7872C5.77983 26.1423 5.81681 26.5096 5.92464 26.8461C6.205 27.7136 6.93827 27.868 7.56986 27.2073C7.7085 27.0622 7.85639 26.8894 7.90876 26.7041C8.23842 25.5464 8.2908 24.3795 7.81017 23.2527C7.52364 22.5828 6.97832 22.2987 6.34365 22.3543C5.92464 22.3883 5.67816 22.5581 5.69973 23.0273C5.7213 23.512 5.70589 23.9998 5.70589 24.4875L5.70897 24.4814Z" fill="#262626"/>
<path d="M34.0104 2.48218C35.021 2.53157 36.1239 2.50379 37.1992 2.82485C39.0847 3.38981 40.0337 4.64629 40.0367 6.62516C40.0367 7.85077 39.7379 9.01772 39.3682 10.1631C38.3576 13.2873 37.4672 16.4455 36.8141 19.6654C36.432 21.5516 36.1178 23.4503 35.9206 25.3643C35.8806 25.744 35.8651 26.1392 35.9114 26.5158C36.0223 27.3987 36.5522 27.6828 37.3964 27.3617C37.8647 27.1826 38.2282 26.8647 38.5795 26.5251C38.9646 26.1515 39.3528 25.7934 39.8673 25.5711C40.4249 25.3272 40.8039 25.5001 41.1336 25.9323C41.1952 26.0126 41.2568 26.099 41.2938 26.1947C42.1102 28.2477 42.2858 30.3316 41.4663 32.4154C40.9795 33.6503 39.9628 34.277 38.6811 34.4344C36.0808 34.7555 33.5021 34.5301 30.9695 33.9127C28.856 33.3971 27.7777 32.0604 27.4973 29.9179C27.1215 27.0746 27.7099 24.3579 28.4955 21.6566C29.4013 18.5447 30.7878 15.6181 31.9061 12.5896C32.2358 11.7005 32.5562 10.8083 32.8273 9.89756C32.9537 9.47154 33.1046 8.92819 32.6271 8.62874C32.1187 8.31076 31.6258 8.59169 31.2253 8.93128C30.9141 9.19369 30.6614 9.52402 30.3811 9.82347C30.1007 10.1229 29.8388 10.4471 29.5246 10.7064C28.8036 11.2991 28.169 11.117 27.8362 10.2557C27.676 9.842 27.6452 9.40362 27.6113 8.97141C27.5097 7.65937 27.5589 6.3504 27.9749 5.08775C28.4093 3.76335 29.275 2.92056 30.7046 2.69828C31.7737 2.53157 32.8489 2.5007 34.0135 2.48218H34.0104Z" fill="#262626"/>
<path d="M199.885 17.3469C199.885 13.42 199.891 9.49314 199.879 5.56626C199.879 4.86856 199.922 4.18012 200.122 3.51329C200.455 2.41117 201.164 1.70421 202.313 1.49737C203.373 1.30596 204.429 1.39549 205.415 1.79374C206.934 2.40808 207.473 3.72322 207.575 5.24211C207.661 6.54798 207.68 7.85694 207.692 9.1659C207.751 15.2754 207.778 21.3818 207.612 27.4914C207.587 28.4175 207.6 28.4237 208.552 28.4082C209.627 28.3897 210.705 28.3496 211.78 28.3743C212.606 28.3928 213.115 28.8621 213.259 29.6709C213.509 31.0725 213.336 32.4339 212.776 33.7336C212.391 34.6289 211.694 35.163 210.711 35.2402C208.616 35.4069 206.518 35.5736 204.414 35.5396C203.077 35.518 202.002 34.9253 201.216 33.8324C200.255 32.4957 199.783 30.9953 199.833 29.3591C199.95 25.355 199.971 21.3541 199.888 17.35L199.885 17.3469Z" fill="#262626"/>
<path d="M240.707 11.617C241.037 10.9717 241.21 10.3265 241.416 9.69675C241.86 8.32913 242.35 6.98003 242.892 5.64946C243.166 4.97955 243.496 4.34359 243.967 3.79099C244.676 2.95436 245.649 2.78457 246.595 3.31247C247.824 3.99783 248.302 5.15552 247.812 6.49535C247.045 8.58845 246.213 10.663 245.415 12.7438C244.451 15.2598 243.554 17.7944 242.892 20.4092C242.833 20.6377 242.818 20.863 242.812 21.0946C242.756 23.7125 242.698 26.3273 242.645 28.9453C242.627 29.7942 242.541 30.6339 242.35 31.4613C241.909 33.3784 239.805 34.4065 238.012 33.576C237.177 33.1901 236.872 32.4369 236.715 31.6064C236.471 30.3345 236.588 29.0441 236.647 27.769C236.745 25.6667 236.724 23.5612 236.755 21.4589C236.758 21.144 236.671 20.8538 236.585 20.5574C235.553 16.9485 234.003 13.5341 232.614 10.0579C232.062 8.67798 231.529 7.28875 231.03 5.88717C230.756 5.11847 230.848 4.40225 231.434 3.74159C233.313 1.62379 236.57 2.12083 237.968 4.77271C239.025 6.77937 239.734 8.92186 240.421 11.0736C240.473 11.2403 240.483 11.4286 240.714 11.617H240.707Z" fill="#262626"/>
<path d="M217.366 17.4826C217.335 13.9139 217.391 10.3451 217.24 6.77631C217.209 6.057 217.228 5.33769 217.323 4.62455C217.536 3.04392 218.457 2.20421 220.047 2.14247C222.533 2.04368 223.944 3.27546 224.052 5.76372C224.264 10.6137 224.218 15.4667 224.187 20.3197C224.175 22.5024 224.12 24.685 224.089 26.8676C224.077 27.7845 224.129 27.8308 225.032 27.8123C225.827 27.7938 226.621 27.7567 227.416 27.7598C228.51 27.7629 229.08 28.1951 229.197 29.254C229.348 30.6216 229.206 31.9738 228.519 33.2087C228.165 33.8477 227.641 34.2892 226.889 34.354C224.896 34.5331 222.9 34.7276 220.9 34.6195C219.745 34.5578 218.894 33.8632 218.303 32.9031C217.474 31.557 217.129 30.0845 217.178 28.4946C217.295 24.8239 217.369 21.1533 217.36 17.4826H217.366Z" fill="#262626"/>
<path d="M23.8527 19.9339C23.8342 22.1875 23.9605 25.8829 24.0498 29.5782C24.0683 30.3469 24.1053 31.1187 23.8958 31.8751C23.6247 32.8599 23.0239 33.468 21.9949 33.6471C20.325 33.9342 18.8277 32.9772 18.4241 31.3379C18.2515 30.6402 18.1529 29.9332 18.1314 29.2077C17.9034 22.0733 17.9003 14.9388 18.0143 7.80438C18.0266 6.95232 18.1006 6.11261 18.3193 5.28833C18.7968 3.51012 20.7132 2.57162 22.417 3.28476C23.1009 3.57186 23.5107 4.11212 23.7263 4.80982C23.9451 5.50443 23.979 6.22066 23.9543 6.94306C23.8342 10.7928 23.8557 14.6425 23.8496 19.937L23.8527 19.9339Z" fill="#262626"/>
</g>
<defs>
<clipPath id="clip0_95_5437">
<rect width="248" height="38" fill="white"/>
</clipPath>
</defs>
</svg>
