<svg width="134" height="130" viewBox="0 0 134 130" fill="none" xmlns="http://www.w3.org/2000/svg">
<path d="M93.2812 111.5C93.2812 108.667 94.7812 103 100.781 103C106.781 103 108.948 108 109.281 110.5M106.281 116.5C106.781 113.5 109.57 108 116.781 108C124.781 108 130.781 114 132.781 124.5" stroke="black" stroke-width="2" stroke-linecap="round"/>
<path d="M30.7809 128.5C30.4708 125.244 31.5164 118.873 37.7812 117.678M49.7809 125.5C49.4476 122.667 46.8809 117.1 39.2809 117.5C38.7506 117.528 38.2512 117.588 37.7812 117.678M18.2812 113C19.1146 111.167 21.9812 107.5 26.7812 107.5C32.7812 107.5 36.7812 112.356 37.7812 117.678" stroke="black" stroke-width="2" stroke-linecap="round"/>
<path d="M1.28145 126C0.948113 123 1.78145 116.3 7.78145 113.5C13.7814 110.7 19.6146 113.333 21.7812 115" stroke="black" stroke-width="2" stroke-linecap="round"/>
<path d="M47.2812 41L27.7136 59.6131C27.1183 60.1794 26.7812 60.9651 26.7812 61.7868V89.5C26.7812 91.1569 28.1244 92.5 29.7812 92.5H47.2812" stroke="black" stroke-width="2"/>
<path d="M87.7812 41L107.349 59.6131C107.944 60.1794 108.281 60.9651 108.281 61.7868V89.5C108.281 91.1569 106.938 92.5 105.281 92.5H87.7812" stroke="black" stroke-width="2"/>
<path d="M47.2812 28.5C47.2812 14.6302 56.5584 6.1412 66.1771 1.51386C66.8812 1.17513 67.6945 1.14322 68.4178 1.43859C78.9276 5.72993 87.7812 15.95 87.7812 28.5V97.5C87.7812 99.1569 86.4381 100.5 84.7812 100.5H67.2812H50.2813C48.6244 100.5 47.2812 99.1694 47.2812 97.5125V28.5Z" stroke="black" stroke-width="2"/>
<circle cx="67.7812" cy="41.5" r="15" stroke="black" stroke-width="2"/>
<path d="M47.2812 86.5H87.7812" stroke="black" stroke-width="2"/>
<path d="M58.2816 100.5C55.3643 106.01 53.0144 118.96 66.1285 127.762C66.849 128.245 67.7629 128.366 68.5582 128.019C74.8071 125.292 82.8572 116.391 76.7812 100.5" stroke="black" stroke-width="2"/>
<path d="M72.3228 35.8244C68.7079 33.4709 64.7917 34.8438 63.2855 35.8244C61.9293 32.2037 56.2841 33.1089 55.8322 36.5033C55.4707 39.2189 57.1101 40.6521 58.3149 41.0292C57.4865 45.4043 58.2246 54.0186 67.8041 53.4755C77.3837 52.9324 77.9711 44.9517 77.0674 41.0292C80.9083 39.6714 80.4564 34.9192 77.0674 33.7878C74.3562 32.8826 72.7747 34.7684 72.3228 35.8244Z" stroke="black" stroke-width="1.5" stroke-linecap="round" stroke-linejoin="round"/>
<ellipse cx="72.5509" cy="42.6133" rx="1.3556" ry="1.35777" fill="black"/>
<ellipse cx="63.0626" cy="42.6133" rx="1.3556" ry="1.35777" fill="black"/>
<path d="M67.5781 46.9129C66.9003 46.6112 65.5898 45.7362 65.7706 44.65C65.9965 43.2922 69.1594 43.2922 69.6113 44.65C69.9728 45.7362 68.4064 46.6112 67.5781 46.9129ZM67.5781 46.9129V50.5336M67.5781 50.5336C68.2558 50.6845 70.1083 50.5336 72.0966 48.7233M67.5781 50.5336C66.6743 50.6091 64.5504 50.3526 63.2852 48.7233" stroke="black" stroke-width="1.5" stroke-linecap="round" stroke-linejoin="round"/>
</svg>
